<?xml version="1.0" standalone="no"?><!DOCTYPE svg PUBLIC "-//W3C//DTD SVG 1.1//EN" "http://www.w3.org/Graphics/SVG/1.1/DTD/svg11.dtd"><svg t="1775195514944" class="icon" viewBox="0 0 1024 1024" version="1.1" xmlns="http://www.w3.org/2000/svg" p-id="7110" xmlns:xlink="http://www.w3.org/1999/xlink" width="200" height="200"><path d="M512 512m-384 0a384 384 0 1 0 768 0 384 384 0 1 0-768 0Z" fill="#B0BEC5" p-id="7111"></path><path d="M896 512a384 384 0 0 1-384 384s234.666667-70.613333 234.666667-384S512 128 512 128a384 384 0 0 1 384 384z" fill="#90A4AE" p-id="7112"></path><path d="M362.666667 362.666667m-42.666667 0a42.666667 42.666667 0 1 0 85.333333 0 42.666667 42.666667 0 1 0-85.333333 0Z" fill="#90A4AE" p-id="7113"></path><path d="M512 533.333333m-85.333333 0a85.333333 85.333333 0 1 0 170.666666 0 85.333333 85.333333 0 1 0-170.666666 0Z" fill="#90A4AE" p-id="7114"></path><path d="M682.666667 725.333333m-42.666667 0a42.666667 42.666667 0 1 0 85.333333 0 42.666667 42.666667 0 1 0-85.333333 0Z" fill="#B0BEC5" p-id="7115"></path><path d="M725.333333 384m-64 0a64 64 0 1 0 128 0 64 64 0 1 0-128 0Z" fill="#B0BEC5" p-id="7116"></path></svg>